# xmcd
# 
# Track frame offsets:
#     150
#     48945
#     73320
#     105821
#     141022
#     152645
#     181976
#     217955
#     238044
#     276646
# 
# Disc length: 3891
# 
# Revision: 1
# Processed by: cddbd v1.5.2PL0 Copyright (c) Steve Scherf et al.
# Submitted via: BonkEnc v1.0.8
# 
DISCID=8d0f310a
DTITLE=Ari Hoenig - Bert's Playground
DYEAR=2007
DGENRE=Contemporary Jazz
TTITLE0=Moments Notice
TTITLE1=The Way You Look Tonight
TTITLE2=Seraphic
TTITLE3=Ramilson's Brew
TTITLE4=Round Midnight
TTITLE5=Fall
TTITLE6=Bert's Playground
TTITLE7=For Tracy
TTITLE8=Green Spleen
TTITLE9=Embraceable You
EXTD=YEAR: 2007
EXTT0=
EXTT1=
EXTT2=
EXTT3=
EXTT4=
EXTT5=
EXTT6=
EXTT7=
EXTT8=
EXTT9=
PLAYORDER=
